<?xml version="1.0" encoding="UTF-8" standalone="no"?>
<svg
   xmlns:dc="http://purl.org/dc/elements/1.1/"
   xmlns:cc="http://creativecommons.org/ns#"
   xmlns:rdf="http://www.w3.org/1999/02/22-rdf-syntax-ns#"
   xmlns:svg="http://www.w3.org/2000/svg"
   xmlns="http://www.w3.org/2000/svg"
   xmlns:sodipodi="http://sodipodi.sourceforge.net/DTD/sodipodi-0.dtd"
   xmlns:inkscape="http://www.inkscape.org/namespaces/inkscape"
   inkscape:export-ydpi="256"
   inkscape:export-xdpi="256"
   inkscape:export-filename="E:\tak\Documents\GitHub\auto-backet\src\icons\icon_128.png"
   width="300"
   height="300"
   viewBox="0 0 12.7 12.7"
   version="1.1"
   id="svg8"
   inkscape:version="1.0 (4035a4fb49, 2020-05-01)"
   sodipodi:docname="icon-flat.svg">
  <defs
     id="defs2" />
  <sodipodi:namedview
     inkscape:snap-nodes="false"
     inkscape:object-nodes="false"
     inkscape:snap-others="false"
     id="base"
     pagecolor="#ffffff"
     bordercolor="#666666"
     borderopacity="1.0"
     inkscape:pageopacity="0.0"
     inkscape:pageshadow="2"
     inkscape:zoom="7.9791667"
     inkscape:cx="40.728542"
     inkscape:cy="21.084358"
     inkscape:document-units="mm"
     inkscape:current-layer="layer1"
     inkscape:document-rotation="0"
     showgrid="false"
     units="px"
     inkscape:window-width="1920"
     inkscape:window-height="986"
     inkscape:window-x="-11"
     inkscape:window-y="-11"
     inkscape:window-maximized="1" />
  <metadata
     id="metadata5">
    <rdf:RDF>
      <cc:Work
         rdf:about="">
        <dc:format>image/svg+xml</dc:format>
        <dc:type
           rdf:resource="http://purl.org/dc/dcmitype/StillImage" />
        <dc:title></dc:title>
      </cc:Work>
    </rdf:RDF>
  </metadata>
  <g
     inkscape:label="レイヤー 1"
     inkscape:groupmode="layer"
     id="layer1">
    <path
       transform="scale(0.26458333)"
       d="M 5.4101562 26.289062 C 3.9724281 26.289063 2.5873073 27.331688 2.8144531 28.589844 L 5.609375 44.070312 C 5.8365227 45.328468 6.7673965 46.358891 8.2050781 46.369141 L 26.820312 46.501953 C 28.257995 46.512199 29.171197 45.458673 29.416016 44.203125 L 30.597656 38.140625 C 29.980841 37.426881 29.59375 36.513378 29.59375 35.498047 L 29.59375 34.441406 C 29.59375 33.238985 30.12318 32.169471 30.957031 31.423828 C 31.286595 31.006326 31.669344 30.632334 32.117188 30.339844 L 32.458984 28.589844 C 32.703802 27.334292 31.302963 26.289063 29.865234 26.289062 L 5.4101562 26.289062 z M 18.460938 29.919922 L 18.601562 43.744141 L 16.296875 43.767578 L 16.15625 29.943359 L 18.460938 29.919922 z M 11.734375 29.921875 L 11.875 43.746094 L 9.5722656 43.769531 L 9.4296875 29.945312 L 11.734375 29.921875 z M 25.144531 29.921875 L 25.285156 43.746094 L 22.980469 43.769531 L 22.839844 29.945312 L 25.144531 29.921875 z "
       style="fill:#00d4aa;fill-opacity:1;stroke:#00d4aa;stroke-width:0.645211;stroke-linejoin:round;stroke-miterlimit:4;stroke-dasharray:none;stroke-opacity:1"
       id="rect1139" />
    <path
       d="m 4.1351355,1.7072885 c -0.5917773,0 -1.0678744,0.4370431 -1.0678744,0.980278 v 2.6148288 c 0,0.5432347 0.4760971,0.9808439 1.0678744,0.9808439 h 6.4682865 c 0.591778,0 1.06849,-0.4376092 1.06849,-0.9808439 V 2.6875665 c 0,-0.5432349 -0.476712,-0.980278 -1.06849,-0.980278 z M 4.6098833,2.9965916 H 5.6981042 V 5.0663815 H 4.6098833 Z m 3.2739112,5.659e-4 H 8.971399 V 5.0669474 H 7.8837945 Z"
       style="fill:#00d4aa;fill-opacity:1;stroke:none;stroke-width:0;stroke-linejoin:round;stroke-miterlimit:4;stroke-dasharray:none;stroke-opacity:1"
       id="rect1107" />
    <g
       transform="translate(-1.5089489,0.09898976)"
       id="g958">
      <circle
         style="fill:#00d4aa;fill-opacity:1;stroke-width:0.386291"
         id="path948"
         cx="8.9115543"
         cy="0.72121412"
         r="0.60515666" />
      <rect
         style="fill:#00d4aa;fill-opacity:1;stroke-width:0.264583"
         id="rect954"
         width="0.58028722"
         height="1.0942559"
         x="8.6214094"
         y="1.0942559" />
    </g>
    <path
       style="color:#000000;font-style:normal;font-variant:normal;font-weight:normal;font-stretch:normal;font-size:medium;line-height:normal;font-family:sans-serif;font-variant-ligatures:normal;font-variant-position:normal;font-variant-caps:normal;font-variant-numeric:normal;font-variant-alternates:normal;font-variant-east-asian:normal;font-feature-settings:normal;font-variation-settings:normal;text-indent:0;text-align:start;text-decoration:none;text-decoration-line:none;text-decoration-style:solid;text-decoration-color:#000000;letter-spacing:normal;word-spacing:normal;text-transform:none;writing-mode:lr-tb;direction:ltr;text-orientation:mixed;dominant-baseline:auto;baseline-shift:baseline;text-anchor:start;white-space:normal;shape-padding:0;shape-margin:0;inline-size:0;clip-rule:nonzero;display:inline;overflow:visible;visibility:visible;isolation:auto;mix-blend-mode:normal;color-interpolation:sRGB;color-interpolation-filters:linearRGB;solid-color:#000000;solid-opacity:1;vector-effect:none;fill:#00d4aa;fill-opacity:1;fill-rule:nonzero;stroke:none;stroke-width:0.399444;stroke-linecap:butt;stroke-linejoin:round;stroke-miterlimit:4;stroke-dasharray:none;stroke-dashoffset:0;stroke-opacity:1;color-rendering:auto;image-rendering:auto;shape-rendering:auto;text-rendering:auto;enable-background:accumulate;stop-color:#000000"
       d="m 10.997776,6.4522196 c -0.429944,0 -0.776354,0.3408896 -0.776354,0.7646846 V 8.0145154 H 9.3097244 c -0.608444,0 -1.098297,0.4828496 -1.098297,1.0825938 v 0.2793059 c 0,0.5997441 0.489853,1.0825929 1.098297,1.0825929 h 1.6569516 c 0.0054,0 0.01023,-0.0017 0.01555,-0.0017 0.0053,1.04e-4 0.01023,0.0017 0.01555,0.0017 h 0.90536 c 0.429943,0 0.775778,-0.340889 0.775778,-0.7646842 V 7.2169042 c -3e-6,-0.423795 -0.345836,-0.7646846 -0.775779,-0.7646846 z"
       id="path1258" />
  </g>
</svg>
